<?xml version="1.0" encoding="UTF-8" standalone="no"?>
<svg
   xmlns:dc="http://purl.org/dc/elements/1.1/"
   xmlns:cc="http://creativecommons.org/ns#"
   xmlns:rdf="http://www.w3.org/1999/02/22-rdf-syntax-ns#"
   xmlns:svg="http://www.w3.org/2000/svg"
   xmlns="http://www.w3.org/2000/svg"
   xmlns:sodipodi="http://sodipodi.sourceforge.net/DTD/sodipodi-0.dtd"
   xmlns:inkscape="http://www.inkscape.org/namespaces/inkscape"
   version="1.1"
   id="svg44"
   width="512"
   height="512"
   viewBox="0 0 512 512"
   sodipodi:docname="real-estate-graphql-logo-light.svg"
   inkscape:version="1.0 (262b4497e3, 2020-09-04)"
   inkscape:export-filename="/home/matthew/Pictures/real-estate-graphql-logo-192.png"
   inkscape:export-xdpi="36.002747"
   inkscape:export-ydpi="36.002747">
  <metadata
     id="metadata50">
    <rdf:RDF>
      <cc:Work
         rdf:about="">
        <dc:format>image/svg+xml</dc:format>
        <dc:type
           rdf:resource="http://purl.org/dc/dcmitype/StillImage" />
        <dc:title></dc:title>
      </cc:Work>
    </rdf:RDF>
  </metadata>
  <defs
     id="defs48" />
  <sodipodi:namedview
     pagecolor="#ffffff"
     bordercolor="#666666"
     borderopacity="1"
     objecttolerance="10"
     gridtolerance="10"
     guidetolerance="10"
     inkscape:pageopacity="0"
     inkscape:pageshadow="2"
     inkscape:window-width="1920"
     inkscape:window-height="1056"
     id="namedview46"
     showgrid="false"
     inkscape:zoom="0.35355339"
     inkscape:cx="1349.6946"
     inkscape:cy="226.03763"
     inkscape:window-x="0"
     inkscape:window-y="0"
     inkscape:window-maximized="1"
     inkscape:current-layer="g56"
     inkscape:showpageshadow="false"
     showborder="true"
     inkscape:pagecheckerboard="true" />
  <g
     inkscape:groupmode="layer"
     inkscape:label="Image"
     id="g52">
    <g
       id="g56"
       transform="matrix(0.59172663,0,0,0.59172663,65.019788,43.364206)">
      <path
         style="fill:#eceff1;stroke:none;fill-opacity:1"
         d="m 304.57393,789.7073 c -29.5955,-6.42784 -54.88094,-31.00325 -63.84508,-62.05208 l -2.78147,-9.63412 -9.63712,-2.69588 c -24.32816,-6.80554 -43.95503,-14.52872 -70.469,-27.72947 l -28.67984,-14.27918 -6.60892,3.80234 C 73.905653,705.10768 9.2529113,678.91054 -4.6422963,625.57982 -9.985097,605.07409 -7.2449085,583.06117 3.2147831,562.46043 l 5.4643013,-10.76228 -4.6843637,-7.8589 C -9.8131687,520.67445 -27.53919,477.70512 -34.307842,450.99083 c -1.461051,-5.76671 -2.717514,-7.37117 -6.410075,-8.18561 -36.563831,-8.0642 -62.673733,-35.51728 -68.252253,-71.76294 -6.16182,-40.03709 19.873781,-81.4314 59.620652,-94.79132 5.944039,-1.99794 11.019809,-3.83936 11.279395,-4.09202 0.259752,-0.25267 2.249109,-6.84457 4.421055,-14.64867 7.681428,-27.60082 22.502948,-62.43495 36.7123988,-86.28294 L 6.7090184,165.10886 0.59727952,152.61893 C -18.074009,114.46176 -7.3129351,68.926471 25.990008,45.169441 53.95895,25.217536 87.786309,22.88098 118.10284,38.806925 l 11.95374,6.279505 6.23358,-3.772801 c 22.6221,-13.691602 66.55547,-31.8085829 94.63441,-39.024885 5.75805,-1.47982403 7.37496,-2.75060836 8.18823,-6.4354089 8.06675,-36.5522341 35.52836,-62.6539611 71.78557,-68.2305581 40.69753,-6.259593 82.65899,20.880411 94.97993,61.431541 3.39084,11.16060505 3.67142,11.51377549 10.51774,13.2451512 26.29722,6.6502687 67.75829,23.7003278 93.06995,38.2731908 l 8.1945,4.717887 6.78778,-3.905328 c 49.67266,-28.578994 111.34086,-2.96239 127.4906,52.958915 2.19411,7.598006 2.70448,14.089566 2.09765,26.686646 -0.7417,15.3978 -1.34191,17.73608 -8.00414,31.17644 l -7.20219,14.53015 4.51853,7.84174 c 14.70967,25.52845 31.34641,66.02315 38.13877,92.83122 1.4651,5.78249 2.70751,7.36257 6.41023,8.15279 43.12875,9.20405 73.19923,52.3398 66.55987,95.47916 -5.57836,36.24566 -31.68825,63.69874 -68.25208,71.76294 -3.69255,0.81444 -4.94902,2.4189 -6.41024,8.18561 -6.75122,26.64621 -24.51329,69.72953 -38.21524,92.69483 l -4.5974,7.70534 6.17656,12.59473 c 27.27227,55.61274 -9.07697,119.49957 -70.81507,124.46355 -15.04692,1.20983 -33.32715,-2.53921 -46.09839,-9.45419 -5.22468,-2.82891 -10.05408,-5.14346 -10.73197,-5.14346 -0.6779,0 -7.58836,3.73963 -15.35659,8.3103 -22.926,13.48919 -55.43379,26.39773 -85.59429,33.98861 -5.77264,1.4529 -7.37279,2.70309 -8.1881,6.39728 -7.67142,34.76066 -32.75026,60.13562 -66.50246,67.28764 -13.65358,2.89314 -21.51894,2.86459 -35.29839,-0.12823 z m 39.12039,-37.941 c 9.806,-4.74552 20.09122,-15.06641 25.05632,-25.14318 5.47952,-11.12104 5.50372,-31.82306 0.049,-42.15151 -5.95606,-11.27845 -13.296,-18.51031 -24.43375,-24.07414 -31.14707,-15.55953 -68.78612,5.77044 -71.96172,40.78061 -0.51224,5.64667 0.0221,13.06436 1.25898,17.481 4.29586,15.33817 19.11669,30.75874 34.34636,35.73611 9.71396,3.17466 26.20197,1.95999 35.68441,-2.62889 z m -97.40284,-83.61686 c 14.84724,-29.95342 44.01594,-48.43134 76.45231,-48.43134 32.42048,0 61.60612,18.47997 76.43591,48.39826 8.11448,16.3704 4.95766,15.86013 34.0685,5.50708 19.29605,-6.86242 55.84567,-23.56421 57.53026,-26.28908 0.54744,-0.88525 -0.98892,-6.89013 -3.41403,-13.34415 -3.61117,-9.61073 -4.43611,-14.79638 -4.55814,-28.65131 -0.12859,-14.64168 0.52037,-18.80605 4.82942,-30.96526 l 4.97862,-14.04851 -30.36171,-30.27217 -30.36156,-30.27217 -13.02372,6.40011 c -31.46115,15.46049 -66.74262,15.85593 -98.66184,1.10577 -14.09996,-6.51569 -30.81558,-18.81491 -38.14622,-28.06766 l -5.28949,-6.6764 h -79.39134 -79.39152 v -93.8878 c 0,-67.47816 -0.52662,-93.88782 -1.87209,-93.88782 -1.0297,0 -8.26643,4.99149 -16.08171,11.09215 -7.815273,6.1007 -14.841142,10.70195 -15.613126,10.22503 -0.771985,-0.47693 -6.989487,-8.16773 -13.816858,-17.09065 -10.543456,-13.77969 -12.051888,-16.55531 -10.01312,-18.42643 1.320091,-1.21161 19.914551,-15.75684 41.320964,-32.32271 21.40639,-16.56585 43.87042,-34.05775 49.92005,-38.8709 6.04963,-4.81311 36.6843,-28.67561 68.0771,-53.02776 l 57.07774,-44.27662 107.06619,83.09184 c 58.88637,45.70051 108.14633,84.10822 109.4664,85.35045 2.04843,1.92758 0.58076,4.63663 -10.01312,18.48213 -6.82735,8.92292 -13.04486,16.61372 -13.81686,17.09065 -0.77198,0.47692 -7.79786,-4.12433 -15.61312,-10.22503 -7.81529,-6.10066 -15.05218,-11.09215 -16.08172,-11.09215 -1.21905,0 -1.87209,4.94492 -1.87209,14.17544 v 14.17543 l 7.60377,6.22872 c 14.74504,12.07865 29.23083,36.23389 34.81205,58.04936 6.44831,25.20461 3.62639,51.91812 -8.05508,76.25349 -3.42484,7.13477 -6.27486,13.59038 -6.33324,14.34576 -0.0575,0.75538 13.47115,14.91585 30.06559,31.46768 l 30.17152,30.09431 9.97352,-4.02722 c 21.56461,-8.70758 42.48317,-9.17264 63.73082,-1.41678 13.71719,5.00703 11.89843,6.45249 25.30779,-20.11486 9.51594,-18.85393 23.42875,-57.22778 22.03623,-60.77953 -0.42524,-1.08466 -4.66574,-3.33395 -9.42321,-4.99846 -19.35511,-6.77173 -39.15138,-27.43485 -47.60139,-49.68588 -5.12418,-13.49327 -6.35307,-35.24756 -2.77829,-49.18506 6.38538,-24.89612 22.81043,-45.01131 46.22481,-56.60994 14.00233,-6.93621 14.21333,-7.13335 13.10275,-12.23822 -3.81998,-17.55914 -24.66391,-66.31258 -33.17976,-77.60711 -2.21746,-2.94115 -2.62427,-2.92427 -10.46239,0.43452 -47.91177,20.53092 -107.2195,-10.68735 -117.89936,-62.05962 -2.87519,-13.83053 -1.16423,-34.348809 4.04844,-48.54975 2.3691,-6.45402 3.96705,-12.285316 3.55076,-12.958449 -2.51241,-4.064089 -38.87233,-21.193335 -60.81803,-28.651615 -24.87054,-8.45227 -23.18626,-8.761983 -29.96642,5.510572 -18.20105,38.314025 -59.27103,57.801082 -99.62472,47.270295 -23.05782,-6.017225 -44.42276,-24.262606 -55.35255,-47.270295 -6.78016,-14.272555 -5.09591,-13.962842 -29.96644,-5.510572 -22.04841,7.493145 -58.30747,24.590503 -60.84103,28.68851 -0.42862,0.693434 1.20688,6.905358 3.63451,13.804301 8.09619,23.007793 5.69597,49.780743 -6.52836,72.816763 -10.61857,20.0103 -34.1091,37.44143 -56.813423,42.15851 -13.834965,2.87434 -34.359727,1.1639 -48.565113,-4.04721 -6.456103,-2.36835 -12.289135,-3.96568 -12.962464,-3.54967 -4.065356,2.51174 -21.200122,38.86013 -28.6607169,60.79898 -8.4549357,24.86265 -8.7647785,23.179 5.5123599,29.95699 38.326087,18.19526 57.819279,59.25231 47.285129,99.59329 -6.019004,23.05056 -24.270287,44.40879 -47.285129,55.33511 -14.2771384,6.77798 -13.9672956,5.09432 -5.5123599,29.957 7.4605949,21.93883 24.5953609,58.2872 28.6607169,60.79897 0.673329,0.41601 6.506361,-1.18682 12.962464,-3.56185 45.406103,-16.70378 94.774676,5.68286 112.534536,51.02989 3.33263,8.50909 3.96704,13.15843 3.92492,28.75843 -0.0439,16.15474 -0.65744,20.16587 -4.65308,30.42009 -5.48291,14.07061 -6.99624,12.11684 19.8902,25.67866 15.90672,8.0236 54.06884,22.46469 59.56189,22.53909 1.01128,0.0136 4.99726,-6.34733 8.8577,-14.13562 z M 91.759268,652.63423 c 21.443962,-5.58369 34.541462,-21.62931 36.010812,-44.11662 1.13733,-17.40736 -2.64965,-27.61398 -14.72439,-39.685 -12.0749,-12.07103 -22.284654,-15.8568 -39.697619,-14.71977 -13.949357,0.91087 -22.512762,4.70997 -32.15715,14.26643 -10.174216,10.08143 -14.553983,20.96786 -14.529445,36.11379 0.03214,19.71483 8.189428,34.56928 23.583422,42.94507 14.038538,7.63832 26.260322,9.16805 41.51437,5.1961 z m 499.852302,-3.37019 c 9.92665,-5.40101 16.92493,-12.60549 22.58382,-23.24919 5.51864,-10.37939 5.45551,-32.77859 -0.12183,-43.28207 -19.93774,-37.54846 -70.48527,-38.44751 -90.89427,-1.61669 -4.43003,7.99455 -4.98372,10.60094 -4.96561,23.37697 0.0169,11.76873 0.74102,15.76125 3.98989,21.99173 10.24291,19.64301 26.57997,29.11038 48.56189,28.14164 9.29342,-0.40958 13.9399,-1.60481 20.84594,-5.36239 z M 397.90242,467.78354 c 14.44282,-6.75652 26.69337,-19.03617 33.66187,-33.74212 5.01115,-10.57552 5.40339,-12.6949 5.40339,-29.20127 0,-16.64427 -0.35487,-18.51878 -5.47413,-28.91413 -17.28012,-35.08991 -57.8152,-49.75084 -92.67379,-33.51867 -10.86667,5.06015 -27.81276,22.00093 -32.87448,32.86411 -12.19912,26.18115 -7.0455,57.48041 12.77395,77.5774 15.75798,15.97867 30.52723,21.71935 53.39263,20.75333 12.0321,-0.50832 16.68126,-1.55722 25.79056,-5.81865 z M 256.00829,406.14447 c 0.0931,-19.54486 0.68111,-24.14734 4.59366,-35.94802 5.93897,-17.91329 14.23637,-31.39818 27.71342,-45.03983 13.24017,-13.40192 27.11066,-21.96997 45.42776,-28.06166 11.82531,-3.93275 16.37362,-4.51568 35.95937,-4.60881 l 22.42171,-0.10658 V 270.08004 247.78051 L 355.31876,219.22242 C 335.07575,203.5155 309.59113,183.67113 298.6864,175.12383 287.78164,166.57654 278.05502,159.5833 277.07167,159.5833 c -0.98316,0 -27.28021,19.85138 -58.43759,44.11419 l -56.64981,44.11421 v 90.37373 90.37377 h 46.95871 46.9587 l 0.10661,-22.41467 z M -2.6297563,405.13278 c 11.1578947,-5.71754 18.4810843,-13.11221 24.0817783,-24.31635 15.720925,-31.4507 -6.001408,-69.10764 -41.508281,-71.95691 -5.934734,-0.47622 -13.204279,0.0529 -16.971806,1.23501 -17.777978,5.5785 -32.876513,21.8509 -36.558922,39.40126 -4.985068,23.75879 9.528302,48.70284 33.731248,57.9741 9.15737,3.50792 28.145776,2.31579 37.2259827,-2.33711 z m 692.9119763,0.0119 c 10.10888,-4.9173 20.35994,-15.14601 25.37056,-25.3151 3.03546,-6.15993 3.9132,-10.78727 3.9132,-20.62894 0,-15.02734 -4.02066,-24.76734 -14.5829,-35.3261 -10.80134,-10.79804 -20.23387,-14.58641 -36.18325,-14.53231 -10.6751,0.0363 -15.04845,0.84322 -20.68246,3.81663 -11.28211,5.95419 -18.51612,13.2917 -24.0818,24.42593 -13.63917,27.28592 -0.0355,58.88985 30.18136,70.11841 9.00269,3.34544 26.47725,2.10612 36.06529,-2.55775 z M 95.263657,161.82318 c 11.801443,-4.01198 26.261003,-18.7269 30.275753,-30.81044 3.89292,-11.71697 2.9446,-30.26192 -2.04248,-39.942226 C 118.59916,81.56394 108.46016,71.863369 98.526565,67.180042 86.616654,61.564959 68.147585,61.577968 56.048486,67.209985 45.055072,72.327275 35.780096,81.5994 30.661172,92.589382 c -5.63386,12.095328 -5.646889,30.558518 -0.03046,42.464658 6.168259,13.07512 18.542174,24.0827 31.501929,28.02365 7.554683,2.29733 24.578947,1.65273 33.130508,-1.25447 z m 495.694713,-1.78211 c 9.53084,-4.94177 19.22144,-15.07398 23.898,-24.98707 3.08557,-6.54041 3.99024,-11.3353 3.99024,-21.14592 0,-15.451711 -4.65257,-26.791174 -15.185,-37.009364 -23.65281,-22.947044 -66.2695,-15.550564 -81.65452,14.171798 -5.00469,9.668906 -5.96011,28.200706 -2.05891,39.942226 3.81863,11.4934 18.44183,26.72768 29.55964,30.79498 10.6651,3.90168 32.29657,2.97975 41.45055,-1.76665 z M 344.36647,58.003686 c 11.13775,-5.563844 18.47751,-12.795693 24.43357,-24.07414 5.45432,-10.328438 5.43012,-31.0304635 -0.049,-42.151517 -4.99471,-10.136923 -15.23037,-20.369496 -25.37056,-25.362568 -11.1936,-5.511824 -30.07878,-5.511824 -41.27238,0 -10.14021,4.993072 -20.37602,15.225645 -25.37073,25.362568 -5.47953,11.1210535 -5.50373,31.823079 -0.049,42.151517 5.95606,11.278447 13.296,18.510296 24.43377,24.07414 14.54484,7.265883 28.70031,7.265883 43.24533,0 z"
         id="path58"
         inkscape:export-xdpi="96.001823"
         inkscape:export-ydpi="96.001823" />
      <path
         style="fill:#eceff1;stroke:none;stroke-width:0.78125;fill-opacity:1"
         d="m 244.21988,510.00125 c -16.4307,-3.97746 -30.58914,-18.23646 -36.4714,-36.73042 l -1.76399,-5.54603 -3.98581,-1.0101 c -12.73086,-3.22629 -25.80466,-8.4065 -46.53545,-18.43868 l -13.87835,-6.7161 -6.6519,3.21971 c -18.19372,8.80627 -37.258675,7.02698 -54.193956,-5.05778 -9.661512,-6.89432 -16.581658,-18.01906 -18.762865,-30.16297 -1.964466,-10.93718 -0.357429,-20.84999 5.332399,-32.89222 l 3.230746,-6.83772 -2.137565,-3.70916 C 60.921837,353.14045 51.581153,331.33538 46.491414,314.9719 l -2.848362,-9.15747 -5.627585,-1.66159 C 28.5144,301.34756 22.11916,297.54584 15.183076,290.5799 5.3453166,280.6998 0.78360884,269.76502 0.75880556,256.00376 0.74296806,247.21688 1.8451125,242.55924 5.9779636,233.94772 12.126337,221.13651 24.18413,210.95129 38.833195,206.1949 c 2.25586,-0.73245 4.101563,-1.45302 4.101563,-1.60127 0,-0.14824 1.436188,-4.95397 3.19153,-10.6794 5.19205,-16.935 12.688493,-34.4941 20.360929,-47.69189 l 3.052501,-5.25079 -2.684014,-5.32974 C 62.405449,126.80478 60.65929,119.8491 60.641573,110.88833 60.602198,90.972766 70.851389,74.542246 88.738157,65.846591 103.8358,58.506871 117.74856,58.727137 133.95038,66.562389 l 7.8125,3.778148 9.375,-4.929711 c 12.91032,-6.788707 24.10175,-11.489993 40.62394,-17.065269 l 14.06144,-4.744916 2.4583,-7.218914 c 3.13535,-9.20711 6.50331,-14.864806 12.40193,-20.83352 11.74789,-11.8875028 28.52675,-17.252108 44.1954,-14.1303272 10.45766,2.0835566 18.51387,6.4795333 26.5397,14.4817262 6.99482,6.974228 10.86718,13.200539 13.6214,21.901636 0.74806,2.363281 1.75814,4.710797 2.24463,5.216702 0.48648,0.505904 6.6853,2.832757 13.77514,5.170782 14.37576,4.74071 32.73473,12.594496 43.29265,18.520168 l 6.96452,3.908865 4.16323,-2.349581 c 10.68969,-6.032891 24.23336,-8.307774 35.42335,-5.949938 9.82895,2.071052 18.06916,6.679311 25.87005,14.467587 5.49315,5.484267 7.31086,7.938501 9.89436,13.359165 4.26682,8.952633 5.12975,13.477388 4.72661,24.784178 l -0.33425,9.37525 -4.19436,8.68506 -4.19436,8.68504 6.30787,12.32118 c 7.00699,13.68674 13.66318,29.94503 17.35835,42.39921 1.33862,4.51167 2.86079,8.58765 3.3826,9.05774 0.52182,0.47008 3.40969,1.63825 6.4175,2.59591 8.20676,2.61297 13.38755,5.90022 20.39843,12.94294 7.39233,7.42592 12.05529,15.84579 14.06857,25.40349 3.21715,15.27291 -2.11518,32.63732 -13.60636,44.30829 -5.7699,5.86018 -12.06769,9.68122 -20.78408,12.61025 -3.78828,1.27301 -7.18352,2.61031 -7.54499,2.97178 -0.36147,0.36146 -2.29524,5.74422 -4.29727,11.96168 -4.5891,14.25183 -12.24056,32.33518 -18.26725,43.17255 l -4.65422,8.36936 3.42248,7.24836 c 7.62419,16.14701 7.61359,31.01552 -0.0327,45.91894 -8.31978,16.21604 -23.45622,26.03085 -41.81801,27.11572 -9.37581,0.55396 -17.1275,-1.01693 -26.59435,-5.38939 l -6.74105,-3.11347 -6.14958,3.4835 c -15.65078,8.86558 -29.5865,14.78875 -46.38395,19.71482 -5.37109,1.57514 -10.16268,3.27128 -10.64796,3.76919 -0.48529,0.49792 -1.6511,3.33588 -2.5907,6.3066 -5.77961,18.27337 -19.16165,31.02549 -36.96251,35.22259 -6.0626,1.42944 -16.68557,1.3993 -22.73246,-0.0645 z m 23.93246,-21.25414 c 5.14349,-2.28566 12.59355,-9.59851 15.21347,-14.93327 1.94684,-3.96424 2.14707,-5.17341 2.14707,-12.96572 0,-10.16149 -1.23868,-13.64833 -7.05892,-19.87063 -19.84142,-21.21209 -54.38518,-6.59746 -52.53537,22.22645 0.67247,10.47868 7.74161,20.50701 17.92718,25.43164 4.70695,2.27577 5.32951,2.37731 12.76086,2.08148 5.75587,-0.22913 8.79527,-0.74771 11.54571,-1.96995 z m -59.77069,-45.05819 c 1.17218,-1.91802 3.3617,-5.67347 4.86561,-8.34545 3.52287,-6.25905 11.54548,-14.32119 17.98212,-18.07073 24.86412,-14.48408 55.88433,-4.74788 69.7664,21.89736 3.60891,6.92692 3.87216,7.22489 6.38306,7.22489 4.43609,0 22.08345,-6.64297 38.87623,-14.63411 10.63817,-5.06237 10.39936,-4.57212 7.14248,-14.66276 -1.70184,-5.27271 -2.02839,-7.77701 -2.08843,-16.01563 -0.0679,-9.31224 0.0614,-10.14647 2.7835,-17.96875 l 2.85466,-8.20312 -18.21159,-18.23453 -18.21159,-18.23452 -6.17748,3.0852 c -15.2662,7.62433 -29.20792,9.66921 -44.46031,6.52113 -13.51851,-2.79022 -27.43113,-10.49302 -36.16215,-20.02138 l -4.64484,-5.06903 h -46.97853 -46.97853 l -0.0773,-51.75781 c -0.0425,-28.4668 -0.30616,-53.65035 -0.58593,-55.96345 l -0.50868,-4.20564 -4.86667,3.42439 c -2.67667,1.88341 -6.84925,4.82992 -9.2724,6.54779 l -4.40572,3.12339 -3.03764,-3.51402 c -1.67069,-1.93271 -5.04544,-6.29657 -7.49944,-9.69746 l -4.46182,-6.18345 3.49059,-2.95503 c 1.91983,-1.62526 30.83474,-24.22411 64.25536,-50.21965 l 60.76476,-47.26462 54.46962,42.28705 c 45.12055,35.02898 71.44908,55.5661 73.59557,57.40696 1.22536,1.05089 -13.10899,19.88052 -14.82908,19.4795 -0.64453,-0.15028 -4.96066,-3.01185 -9.59141,-6.35907 -4.63073,-3.34723 -8.6737,-5.83252 -8.98437,-5.52288 -0.31067,0.30964 -0.68522,4.24276 -0.83235,8.74025 l -0.2675,8.17728 5.17896,4.74557 c 6.56365,6.01439 11.25979,12.59465 15.59951,21.85815 4.87089,10.39733 6.21252,16.3617 6.21252,27.61838 0,12.56426 -1.00499,16.36108 -9.3788,35.43296 l -1.15055,2.62046 18.11903,18.22488 18.11902,18.22489 3.99578,-1.61083 c 14.34662,-5.78356 25.24049,-6.28801 39.33971,-1.82166 5.04867,1.59931 6.78164,1.85524 8.03185,1.18614 4.00912,-2.14562 22.6152,-46.87088 20.75249,-49.88481 -0.23637,-0.38246 -2.45724,-1.5042 -4.93527,-2.49277 -6.87394,-2.74224 -11.80516,-6.19632 -17.51764,-12.2703 -9.55546,-10.16013 -13.94098,-21.09788 -13.94098,-34.7696 0,-8.2261 1.46778,-14.49831 5.06386,-21.63916 5.19466,-10.31523 12.05833,-16.91467 24.39584,-23.45671 3.52706,-1.87024 6.57988,-3.83576 6.78404,-4.36781 1.20568,-3.14194 -12.1637,-37.04164 -18.57062,-47.08809 -2.45252,-3.84571 -2.16511,-3.83154 -11.21838,-0.55332 -12.06994,4.37056 -24.97691,3.29349 -38.43326,-3.20722 -13.19218,-6.37307 -23.50389,-18.84383 -26.9991,-32.65213 -2.24538,-8.87066 -1.21743,-20.9888 2.80603,-33.079313 2.00032,-6.01093 2.60738,-5.333422 -10.62529,-11.858282 -15.90896,-7.844507 -35.25841,-14.739193 -38.19838,-13.611024 -0.6775,0.259984 -2.90691,3.689016 -4.95422,7.620072 -7.48119,14.36464 -20.86077,24.682406 -35.62706,27.474077 -7.69726,1.45522 -11.31518,1.45447 -19.00317,-0.0039 -14.82632,-2.812523 -27.6449,-12.9195 -35.49378,-27.985533 -1.80512,-3.464941 -3.92297,-6.439677 -4.90243,-6.885948 -3.13404,-1.427988 -25.77088,6.896722 -42.28971,15.552044 -8.25404,4.324843 -8.11272,3.852929 -4.81365,16.074359 7.21279,26.719868 -6.39187,53.327618 -32.10701,62.794298 -9.82978,3.6187 -21.96233,3.26027 -35.729392,-1.05554 l -6.243812,-1.95736 -1.461711,1.80483 c -5.026055,6.20578 -19.253797,40.78569 -19.253797,46.79551 0,2.46374 0.644151,3.01012 8.425075,7.14625 10.249441,5.44833 18.236245,13.69181 22.908066,23.6443 6.740691,14.35984 6.071201,32.21067 -1.703703,45.42665 -4.400297,7.47974 -13.256797,15.67701 -21.830082,20.20518 l -7.408731,3.9131 0.106188,3.8994 c 0.221582,8.13692 17.16764,47.25879 20.470648,47.25879 0.778313,0 3.993242,-0.87687 7.144281,-1.94861 9.67111,-3.28936 17.58777,-4.06921 26.28635,-2.58939 17.71917,3.01441 32.3495,14.52092 39.54377,31.1005 2.51105,5.78687 2.54233,6.00924 2.52713,17.96875 -0.0144,11.33877 -0.15112,12.45089 -2.14844,17.47583 -1.17318,2.95155 -2.13305,6.00983 -2.13305,6.79618 0,3.44801 15.36352,11.29974 38.28125,19.56415 10.73637,3.87166 11.25442,3.85493 13.88439,-0.44848 z m -84.82062,-15.18218 c 9.23258,-3.5795 15.30892,-11.57357 17.04199,-22.42054 1.11704,-6.99134 0.43579,-12.06447 -2.41963,-18.0183 -2.53266,-5.28086 -9.4018,-12.30072 -14.32065,-14.63486 -7.85768,-3.72872 -20.21367,-3.35889 -27.920497,0.83569 -5.030149,2.73775 -10.422172,8.59392 -13.022446,14.1434 -1.870047,3.99105 -2.087359,5.34165 -2.038656,12.67036 0.03805,5.72343 0.455203,9.24805 1.380039,11.65985 2.839141,7.40395 9.550031,13.63011 17.89369,16.60122 5.66061,2.01571 17.10392,1.60658 23.40616,-0.83682 z m 291.89008,-0.82792 c 5.77697,-3.10518 10.47765,-8.0744 13.33453,-14.09633 1.79492,-3.78343 2.0385,-5.27707 2.0385,-12.5 0,-7.27004 -0.23881,-8.71283 -2.09951,-12.68421 -1.15473,-2.46459 -3.83311,-6.21469 -5.95196,-8.33354 -14.91699,-14.91698 -38.68835,-11.16172 -48.97325,7.7365 -2.2172,4.07403 -2.33747,4.76283 -2.31899,13.28125 0.018,8.28422 0.18881,9.30951 2.19204,13.15642 2.52797,4.8546 7.36459,10.34146 11.21185,12.7192 4.86391,3.00606 8.73801,3.80258 17.42544,3.58269 7.64216,-0.19344 8.54083,-0.38916 13.14135,-2.86198 z M 295.33202,322.49385 c 10.647,-3.12354 19.71265,-11.05826 25.13362,-21.99825 l 3.32849,-6.71719 -0.007,-10.99639 c -0.007,-10.89938 -0.0298,-11.04121 -2.59463,-16.07453 -3.72827,-7.31672 -7.93607,-12.55466 -13.36231,-16.63364 -9.77427,-7.34745 -22.36375,-9.99006 -34.2463,-7.18851 -7.66043,1.8061 -12.49352,4.70353 -19.38775,11.62293 -9.20611,9.23972 -11.987,15.86822 -12.02349,28.65899 -0.0217,7.60801 1.31075,12.96901 4.93822,19.86836 4.55631,8.66597 15.82411,17.81345 24.43154,19.83414 5.19514,1.21962 19.10004,0.9999 23.78965,-0.37591 z m -78.00468,-39.96604 c 0.30358,-13.88904 0.43986,-14.97246 2.62857,-20.89844 7.57247,-20.50254 22.34944,-35.06223 42.5101,-41.885 6.99203,-2.36624 8.22501,-2.53253 21.28906,-2.87121 l 13.86719,-0.3595 -0.0115,-13.37964 -0.0115,-13.37965 -32.73614,-25.39063 c -18.00487,-13.96484 -33.62986,-25.71711 -34.72219,-26.11616 -2.22909,-0.81432 -4.90039,1.1143 -47.75296,34.4764 l -21.875,17.03039 -0.20069,53.71094 -0.2007,53.71093 h 28.44783 28.44783 z M 56.627049,285.3876 c 11.680521,-2.15926 20.392986,-10.54272 23.480279,-22.59361 2.609219,-10.18479 -0.21207,-20.2182 -7.807327,-27.76539 -5.49623,-5.46144 -10.178635,-7.89172 -17.058045,-8.85351 -10.639229,-1.48743 -18.56307,1.45206 -26.34811,9.77429 -9.277287,9.91745 -10.875674,22.05253 -4.495117,34.12732 2.573122,4.86947 8.407731,10.65992 13.209648,13.10968 5.783422,2.95047 11.430165,3.60403 19.018672,2.20122 z m 410.187661,0.002 c 6.30056,-1.15378 11.39138,-4.08211 16.28426,-9.367 6.35631,-6.86557 7.78412,-10.48682 7.83786,-19.87867 0.0419,-7.31114 -0.12437,-8.17256 -2.51309,-13.02476 -2.9103,-5.91165 -8.89375,-11.89852 -14.79665,-14.80512 -3.27088,-1.61068 -4.86448,-1.84128 -12.72358,-1.84128 -8.36602,0 -9.27531,0.15315 -13.21141,2.22518 -18.83218,9.91356 -22.3534,35.47581 -6.81168,49.44916 7.99225,7.18571 15.22061,9.2043 25.93429,7.24239 z M 119.97674,139.77161 c 5.47756,-1.62666 10.63769,-5.28002 14.73964,-10.4356 4.64495,-5.83806 6.17897,-10.54543 6.15208,-18.87852 -0.0301,-9.33382 -1.67265,-13.772576 -7.3372,-19.827998 -5.63999,-6.029172 -10.54899,-8.765789 -17.72008,-9.878422 -13.77148,-2.136718 -26.628094,4.480829 -32.689219,16.825766 -2.122906,4.323794 -2.295429,5.327424 -2.281375,13.271284 0.01399,7.88352 0.199891,8.96073 2.249883,13.03422 3.514875,6.98432 10.647109,13.49954 17.424511,15.91709 3.97293,1.41718 14.64729,1.40192 19.46176,-0.0278 z m 290.43657,-0.0241 c 7.66354,-1.99609 14.19404,-7.62434 18.57508,-16.00874 1.63113,-3.12163 1.83699,-4.56626 1.83699,-12.89062 0,-8.67691 -0.16219,-9.70529 -2.17821,-13.810602 -3.32397,-6.768766 -10.15396,-12.690625 -17.05394,-14.786438 -8.42873,-2.56014 -16.68079,-1.914875 -24.41873,1.909422 -6.4888,3.206938 -11.3513,7.977571 -14.06269,13.796993 -1.36142,2.922015 -1.63997,5.032635 -1.64971,12.499995 -0.0102,7.87329 0.21598,9.4468 1.82947,12.72358 2.18078,4.42888 8.46474,11.51724 12.32559,13.90337 6.23145,3.85125 16.14619,4.91607 24.79615,2.66304 z m -141.908,-61.731337 c 6.71368,-3.117855 11.69696,-7.915987 14.81407,-14.263657 1.98096,-4.034031 2.1935,-5.261721 2.1935,-12.669984 0,-7.282019 -0.23712,-8.709141 -2.11174,-12.709569 -2.72984,-5.825464 -9.45626,-12.543861 -15.25681,-15.238636 -3.82006,-1.774693 -5.57738,-2.096333 -11.5377,-2.111743 -9.79999,-0.02534 -13.97861,1.559208 -20.61076,7.815644 -5.84664,5.51542 -8.3094,9.763269 -9.54942,16.471137 -2.51026,13.579253 4.4505,27.136863 16.8463,32.811847 8.9213,4.084305 16.25747,4.053742 25.21256,-0.105039 z"
         id="path92"
         transform="matrix(1.6899696,0,0,1.6899696,-109.88146,-73.284189)"
         inkscape:export-xdpi="96.001823"
         inkscape:export-ydpi="96.001823" />
      <path
         style="fill:#eceff1;stroke-width:1.5625;fill-opacity:1"
         d="m 235.52391,505.72609 c -10.37005,-5.16762 -18.32684,-14.10231 -24.5785,-27.59925 l -5.01244,-10.82156 -13.75439,-4.62198 c -7.5649,-2.54211 -21.86883,-8.4791 -31.7865,-13.1933 l -18.03214,-8.57131 -10.55079,4.13946 c -9.12887,3.5816 -12.19658,4.04121 -22.76256,3.4104 C 73.23645,446.33058 53.009353,413.43614 66.847047,379.8413 l 4.262828,-10.34921 -7.710506,-15.43204 C 59.158589,345.57242 53.108827,331.14154 49.95545,321.99144 l -5.733411,-16.63657 -9.113248,-3.32286 C 23.64058,297.8505 11.650956,287.2409 6.3323153,276.56779 0.433063,264.72953 0.60125086,248.48156 6.7577516,235.46806 12.148713,224.07273 23.752725,213.09476 35.446819,208.32675 l 8.263012,-3.36906 4.951569,-15.46711 c 2.723364,-8.50693 8.612291,-22.88779 13.086503,-31.95749 l 8.134933,-16.49036 -3.711502,-9.01987 C 60.699877,118.72588 60.92123,99.52528 66.67275,88.528849 71.643278,79.02561 81.162433,70.077475 91.100972,65.565989 102.48788,60.39703 119.03181,60.826739 131.64258,66.619008 l 9.80775,4.50481 18.31725,-8.660511 c 10.07449,-4.763283 23.94225,-10.503797 30.81725,-12.7567 6.875,-2.252904 13.32639,-4.621583 14.33642,-5.263735 1.01003,-0.64215 3.31863,-5.12912 5.13022,-9.971045 4.52746,-12.100691 13.68217,-22.0035 25.90314,-28.0198657 9.29228,-4.5745743 10.96283,-4.8925557 22.18338,-4.2225267 14.43405,0.8619209 22.49561,4.4900983 32.7408,14.7352714 3.8954,3.895408 9.02896,11.441482 11.51792,16.930735 4.1229,9.092883 5.10173,10.126881 11.9642,12.638531 17.34961,6.349935 42.35248,16.855003 48.97147,20.575589 l 7.12255,4.003643 10.33145,-4.133229 c 25.40306,-10.162828 51.60398,-0.962053 64.44469,22.63054 3.66893,6.741034 4.6744,10.786995 5.20822,20.957575 0.6069,11.56293 0.27886,13.3606 -3.97229,21.76774 l -4.63382,9.16395 8.95268,18.87661 c 4.92397,10.38214 10.83561,24.62464 13.13697,31.65 2.30136,7.02537 5.02303,13.4082 6.04816,14.18408 1.02511,0.77587 5.22481,2.65265 9.33264,4.17062 9.85745,3.64264 22.08384,15.71199 27.16948,26.82047 5.57116,12.16903 4.80777,28.80511 -1.8862,41.10413 -5.86875,10.78282 -15.62176,19.24242 -27.15858,23.5569 -6.89737,2.57945 -9.64833,4.50753 -10.85792,7.61008 -0.89101,2.28542 -4.19061,11.18658 -7.33242,19.78033 -3.14181,8.59375 -8.44828,20.92361 -11.79216,27.3997 -3.34386,6.4761 -6.07975,12.39749 -6.07975,13.15866 0,0.76117 1.82856,5.95462 4.06346,11.541 3.36189,8.40337 3.96304,12.06647 3.4819,21.21634 -1.8302,34.80456 -35.89948,55.59969 -69.23887,42.26183 l -9.88275,-3.95373 -15.38375,7.74917 c -8.46105,4.26204 -22.80197,10.29693 -31.86871,13.41087 l -16.48498,5.66172 -4.31605,9.90722 c -9.3442,21.44903 -24.74817,32.11247 -46.39159,32.11473 -9.52946,0.001 -13.34686,-0.76831 -19.82083,-3.99442 z m 33.77156,-16.99694 c 6.84691,-3.54067 15.53269,-14.16495 16.70971,-20.43898 1.37751,-7.34278 -0.25494,-19.08661 -3.29893,-23.73231 -3.99023,-6.08986 -14.58746,-12.74111 -22.0934,-13.86669 -9.11703,-1.36719 -17.76377,1.26147 -24.97417,7.59228 -7.06169,6.20025 -9.8976,12.794 -9.8976,23.01286 0,10.23222 4.47797,18.99717 12.77688,25.00888 5.55386,4.0232 7.82056,4.66656 16.4414,4.66656 5.63188,0 11.8936,-0.97952 14.33611,-2.2426 z m -55.40512,-52.24637 c 23.16172,-34.84019 66.11917,-32.81253 86.82584,4.09834 2.17533,3.87764 4.8671,6.64063 6.46949,6.64063 3.68771,0 21.70678,-6.5782 36.55881,-13.3465 l 12.09406,-5.51144 -1.31336,-7.36791 c -2.05994,-11.55626 -1.62186,-31.64048 0.86892,-39.83573 l 2.26969,-7.46783 -18.1885,-18.1885 -18.18851,-18.18851 -9.10097,4.03489 c -5.00555,2.2192 -11.91349,4.79578 -15.35099,5.72575 -19.38179,5.24348 -45.46569,-2.68857 -60.86398,-18.50858 l -6.17649,-6.34564 h -47.31964 -47.31966 l -0.41011,-56.34814 -0.41012,-56.34813 -9.08071,6.50311 c -10.30568,7.38038 -10.71505,7.27475 -19.18703,-4.95031 -3.66956,-5.29519 -3.9688,-6.48324 -2.07295,-8.23 7.03067,-6.47783 123.58257,-96.25153 124.96196,-96.25153 1.26487,0 101.16673,76.92395 123.22894,94.88569 l 3.78771,3.08373 -3.29957,5.33881 c -1.81477,2.93636 -5.06382,6.99624 -7.22011,9.02197 l -3.92052,3.68314 -7.71445,-5.66292 c -4.24294,-3.11461 -8.43128,-5.66292 -9.30742,-5.66292 -0.87614,0 -1.87038,3.6914 -2.20941,8.20312 -0.59716,7.94697 -0.37944,8.46636 6.9722,16.63255 13.92303,15.46572 21.29269,35.76902 19.26027,53.06177 -0.54981,4.67803 -3.12463,13.81239 -5.72181,20.29854 l -4.72216,11.79302 18.43503,18.37087 18.43503,18.37089 8.59375,-3.00187 c 10.52066,-3.67495 23.26861,-3.91363 34.28567,-0.64192 4.55971,1.35409 8.86255,1.88143 9.56185,1.17187 4.29084,-4.3537 20.21964,-42.69456 20.21126,-48.64884 -0.002,-1.61639 -3.36647,-4.39838 -8.67022,-7.16972 -26.82704,-14.01778 -35.36471,-48.59295 -17.86773,-72.35916 4.05758,-5.51143 20.17853,-17.86433 25.73381,-19.71889 1.04147,-0.34767 0.89621,-3.12489 -0.42151,-8.05876 -2.73577,-10.24339 -13.85121,-36.66172 -17.35949,-41.25875 -2.83397,-3.71345 -2.89811,-3.72069 -10.37847,-1.17188 -23.38786,7.96905 -51.19814,-3.59028 -62.31643,-25.9018 -4.77313,-9.57842 -5.48905,-25.59808 -1.70189,-38.082088 1.27975,-4.218612 2.33443,-8.242144 2.34375,-8.941181 0.0353,-2.653789 -43.95002,-21.385274 -50.21697,-21.385274 -0.70414,0 -4.15508,4.55198 -7.66877,10.11551 -10.93723,17.317878 -25.48237,25.835825 -44.06725,25.806726 -17.15761,-0.02686 -32.1492,-9.406984 -42.64276,-26.681244 -3.08749,-5.082545 -6.13821,-9.240992 -6.77938,-9.240992 -7.3242,0 -47.83133,17.597372 -49.29658,21.415744 -0.48698,1.269074 0.24538,6.637667 1.62749,11.930206 6.15906,23.585193 -4.52225,48.294053 -25.44394,58.858963 -9.7853,4.94132 -26.3294,6.01195 -38.450465,2.48826 -4.740552,-1.37812 -9.008672,-2.50567 -9.484714,-2.50567 -2.935038,0 -21.30976,42.32431 -21.30976,49.08487 0,1.32617 4.940053,5.66574 10.977896,9.64349 6.138251,4.04389 12.969928,10.12759 15.496476,13.79979 17.631727,25.62683 9.124028,57.80033 -19.266955,72.86171 -3.964079,2.10293 -7.207417,4.93204 -7.207417,6.2869 0,6.19455 13.822588,40.53307 19.034472,47.28604 2.122806,2.7505 2.593361,2.75885 11.387753,0.20225 40.570324,-11.79411 76.391654,23.28639 64.001494,62.6779 -2.72634,8.66775 -2.721,8.93958 0.21902,11.14308 7.97475,5.97698 38.91012,18.99144 45.47164,19.12984 2.49937,0.0527 5.28003,-2.7629 10.53489,-10.66734 z m -87.01775,-8.56941 c 8.9619,-4.63439 14.49348,-14.85728 14.49348,-26.78537 0,-9.65277 -2.97435,-16.0727 -10.65925,-23.00722 -7.66818,-6.91944 -11.41561,-8.04872 -23.7487,-7.15663 -16.530795,1.19574 -26.529549,12.7315 -26.529549,30.60769 0,14.08999 4.996013,22.11839 17.198657,27.63761 6.464772,2.92399 22.455012,2.21535 29.245362,-1.29608 z m 291.54072,-1.45328 c 10.15412,-7.74492 12.79651,-13.02548 12.79651,-25.57261 0,-10.13726 -0.44486,-11.72814 -4.77794,-17.0864 -7.68093,-9.49819 -12.19118,-12.08886 -22.322,-12.82166 -12.20498,-0.88283 -21.72193,3.25205 -28.26073,12.27859 -4.29542,5.92966 -4.79558,7.79343 -4.79558,17.86999 0,9.89173 0.53824,11.99289 4.45838,17.40448 7.69848,10.62746 13.07393,13.04846 27.77593,12.50975 7.67415,-0.28118 10.68075,-1.19201 15.12543,-4.58214 z M 299.73304,321.63597 c 7.24978,-3.02916 15.7222,-10.86668 20.42885,-18.89797 3.4216,-5.83852 4.01669,-8.73406 4.01669,-19.54396 0,-14.17775 -1.59675,-18.4797 -10.52869,-28.36628 -10.5685,-11.69807 -25.27056,-16.07506 -41.17746,-12.25904 -6.80118,1.63157 -10.05332,3.71406 -17.99861,11.52534 -10.25711,10.08409 -13.08232,16.20747 -13.09902,28.39097 -0.0219,15.89656 9.64681,31.806 23.42878,38.55144 6.82525,3.34054 27.51914,3.69572 34.92946,0.5995 z m -81.50966,-40.42985 c 0.56067,-13.83081 1.27759,-17.2815 5.25534,-25.29508 6.98516,-14.07226 17.7078,-24.84512 31.52763,-31.67525 10.7115,-5.2939 13.20053,-5.88378 27.20008,-6.44607 l 15.40965,-0.61893 v -14.35414 -14.35412 l -32.9392,-25.30789 c -18.11656,-13.91934 -34.12572,-25.30789 -35.57591,-25.30789 -2.54931,0 -12.17259,6.9732 -50.67328,36.71875 l -18.20156,14.0625 -0.055,54.29687 -0.055,54.29688 h 28.72903 28.72903 z m -153.5541,2.02164 C 81.7308,274.52362 86.810799,253.37601 75.568275,237.85615 67.621569,226.88604 51.666278,222.30092 39.36277,227.45164 c -6.927162,2.89998 -16.168903,13.57281 -18.505237,21.37081 -3.65038,12.18388 3.595375,27.99833 15.835819,34.56294 7.250643,3.88856 20.187615,3.81567 27.975928,-0.15763 z m 407.45446,1.39816 c 5.33787,-2.01247 14.01494,-10.08341 17.03191,-15.8422 1.21573,-2.32061 2.21043,-8.1563 2.21043,-12.96822 0,-9.98213 -2.21383,-15.0775 -9.63231,-22.1698 -6.37887,-6.09839 -11.90389,-8.29895 -20.83644,-8.29895 -12.62329,0 -22.0332,6.14706 -27.50647,17.96875 -6.679,14.42595 -1.11329,31.00462 13.44397,40.04578 5.28741,3.28387 18.21792,3.9305 25.28891,1.26464 z M 125.80159,137.81588 c 11.44765,-5.84016 18.38851,-22.87964 14.93109,-36.65511 -1.38236,-5.507745 -11.56153,-16.461971 -17.67579,-19.021634 -12.35623,-5.172797 -29.36071,-0.749784 -37.340946,9.712708 -3.880578,5.087635 -4.578941,7.551422 -5.030738,17.748196 -0.495084,11.17375 -0.250478,12.21728 4.34413,18.53279 7.111867,9.77559 12.997078,12.82609 24.758364,12.83308 6.7857,0.004 11.74273,-0.97105 16.01389,-3.15003 z m 294.39538,-2.14947 c 11.36349,-8.66736 15.07291,-25.99743 8.47982,-39.616942 -8.08994,-16.711585 -31.45172,-20.963154 -47.85922,-8.709816 -7.43049,5.549177 -9.76399,11.22415 -9.76399,23.745538 0,9.89136 0.4711,11.51576 5.12038,17.65572 7.41867,9.79727 13.56129,12.49974 27.05606,11.9034 9.37044,-0.41409 11.9918,-1.18316 16.96695,-4.9779 z M 267.56682,79.178422 c 20.98906,-8.769792 25.69711,-35.107986 9.02306,-50.477598 -8.08127,-7.449052 -11.79459,-8.642614 -24.11558,-7.751396 -10.01994,0.724777 -15.63352,4.173904 -22.22862,13.657836 -3.07599,4.423347 -3.72335,7.295724 -3.72335,16.520733 0,9.345796 0.63622,12.094966 3.90203,16.861102 8.04419,11.739725 24.1865,16.602667 37.14246,11.189323 z"
         id="path917"
         transform="matrix(1.6899696,0,0,1.6899696,-109.88146,-73.284189)"
         inkscape:export-xdpi="96.001823"
         inkscape:export-ydpi="96.001823" />
      <path
         style="fill:#eceff1;stroke-width:0.0976562;fill-opacity:1"
         d="m 216.55728,286.74 c 0.0316,-5.2771 0.10446,-10.38574 0.16189,-11.35254 0.2844,-4.78764 0.81366,-7.58055 2.304,-12.1582 3.1604,-9.70731 7.12624,-16.78449 13.46203,-24.02344 1.31041,-1.4972 4.59538,-4.83036 6.11969,-6.20946 6.68318,-6.04651 13.60867,-10.13957 22.45976,-13.27404 5.29606,-1.87551 8.58855,-2.63875 12.83638,-2.97563 2.13995,-0.16972 10.23055,-0.30419 16.5039,-0.27432 l 5.95703,0.0284 -8.74023,0.22691 c -13.83226,0.3591 -16.10318,0.50391 -19.33159,1.23268 -2.715,0.61287 -7.6551,2.28096 -11.13716,3.76061 -9.1662,3.89503 -17.56294,9.94784 -23.98488,17.28957 -5.93597,6.78615 -10.49675,14.74881 -13.78787,24.07226 -1.42817,4.0459 -1.73894,6.33779 -1.97301,14.55078 -0.13519,4.74371 -0.39096,16.28153 -0.39096,17.63662 v 1.06456 h -0.25823 -0.25823 z"
         id="path927"
         transform="matrix(1.6899696,0,0,1.6899696,-109.88146,-73.284189)"
         inkscape:export-xdpi="96.001823"
         inkscape:export-ydpi="96.001823" />
    </g>
  </g>
</svg>
